<svg width="143" height="143" viewBox="0 0 143 143" fill="none" xmlns="http://www.w3.org/2000/svg">
<g clip-path="url(#clip0_304_2303)">
<path d="M92.6742 103.132L96.5733 107.031L98.9566 104.647L95.0575 100.748L92.6742 103.132ZM35.5695 56.7233C35.5695 60.4985 36.9137 64.1593 39.3542 67.0384L41.9187 64.8648C39.993 62.5959 38.9348 59.7073 38.9348 56.7233C38.9348 51.9853 41.5564 47.6953 45.7702 45.5217L44.2258 42.5282C38.8871 45.2833 35.5695 50.7269 35.5695 56.7233ZM94.9812 82.9495C93.5512 81.5195 91.4634 81.1287 89.6807 81.7865L83.055 75.1608C86.2773 70.356 88.327 64.5883 88.327 58.3821C88.327 41.7369 74.618 27.7515 57.9824 27.7515C41.3372 27.7515 27.7617 41.7369 27.7617 58.3821C27.7617 75.0273 41.3372 88.3168 57.9824 88.3168C64.589 88.3168 70.6998 86.4292 75.6762 82.8161L81.8348 88.9746L80.176 90.6334L89.7665 100.224L92.1498 97.8406L84.9426 90.6334L90.2432 85.3329C90.901 84.6751 91.9687 84.6751 92.6265 85.3329L112.913 105.62L107.613 110.92C106.955 111.578 105.887 111.578 105.23 110.92L101.988 107.679L99.6049 110.062L102.846 113.304C103.828 114.286 105.125 114.781 106.412 114.781C107.708 114.781 108.995 114.286 109.977 113.304L117.652 105.629L94.9812 82.9495ZM57.9824 84.9611C43.1962 84.9611 31.127 73.1779 31.127 58.3917C31.127 43.6055 43.1962 31.1263 57.9824 31.1263C72.7686 31.1263 84.9617 43.6055 84.9617 58.3917C84.9617 73.1779 72.7686 84.9611 57.9824 84.9611ZM84.199 86.5913L78.2884 80.6806C79.2513 79.8035 80.1569 78.8597 80.9958 77.8683L86.9542 83.8266L84.199 86.5913Z" fill="url(#paint0_linear_304_2303)"/>
<path d="M71.5 143C32.0701 143 0 110.93 0 71.5C0 32.0701 32.0701 0 71.5 0C110.93 0 143 32.0701 143 71.5C143 110.93 110.93 143 71.5 143ZM71.5 3.36527C33.9291 3.36527 3.36527 33.9291 3.36527 71.5C3.36527 109.071 33.9291 139.635 71.5 139.635C109.071 139.635 139.635 109.071 139.635 71.5C139.635 33.9291 109.071 3.36527 71.5 3.36527Z" fill="url(#paint1_linear_304_2303)"/>
</g>
<defs>
<linearGradient id="paint0_linear_304_2303" x1="117.652" y1="27.3351" x2="27.7617" y2="27.3351" gradientUnits="userSpaceOnUse">
<stop stop-color="#5AB9DA"/>
<stop offset="1" stop-color="#2B94D1"/>
</linearGradient>
<linearGradient id="paint1_linear_304_2303" x1="143" y1="-0.6843" x2="-5.23359e-09" y2="-0.684299" gradientUnits="userSpaceOnUse">
<stop stop-color="#5AB9DA"/>
<stop offset="1" stop-color="#2B94D1"/>
</linearGradient>
<clipPath id="clip0_304_2303">
<rect width="143" height="143" fill="white"/>
</clipPath>
</defs>
</svg>
