<svg width="27" height="24" viewBox="0 0 27 24" fill="none" xmlns="http://www.w3.org/2000/svg">
<path fill-rule="evenodd" clip-rule="evenodd" d="M23.5166 3.342C20.9603 0.862398 16.8814 0.744565 14.1812 2.99339C14.0619 3.09275 13.9152 3.14007 13.77 3.13644C13.6247 3.14007 13.478 3.09275 13.3587 2.99339C10.6586 0.744566 6.57965 0.862398 4.02332 3.342C1.47578 5.8131 1.3577 9.73936 3.66415 12.345C3.69044 12.3747 3.71337 12.4062 3.73295 12.4392L13.77 22.175L23.807 12.4392C23.8266 12.4062 23.8495 12.3747 23.8758 12.345C26.1822 9.73936 26.0641 5.8131 23.5166 3.342ZM24.9113 13.0388C27.5405 9.94036 27.3612 5.34794 24.3778 2.45414C21.4804 -0.356276 16.9424 -0.591243 13.77 1.7449C10.5975 -0.591243 6.05947 -0.356276 3.16211 2.45414C0.178773 5.34794 -0.000619769 9.94035 2.62866 13.0388C2.65988 13.1034 2.70244 13.1628 2.75502 13.2138L13.3394 23.4805C13.5793 23.7132 13.9607 23.7132 14.2006 23.4805L24.7849 13.2138C24.8375 13.1628 24.88 13.1034 24.9113 13.0388Z" fill="#222426"/>
</svg>
