<svg width="20" height="19" viewBox="0 0 20 19" fill="none" xmlns="http://www.w3.org/2000/svg">
<g clip-path="url(#clip0_209_3021)">
<path d="M19.416 12.6665V16.6248C19.416 17.2547 19.1658 17.8588 18.7204 18.3042C18.275 18.7496 17.6709 18.9998 17.041 18.9998H13.0827C11.9721 18.9987 10.8812 18.7055 9.9197 18.1497C8.95815 17.5939 8.15966 16.795 7.60435 15.8331C8.20116 15.8289 8.79595 15.7631 9.37927 15.6368C9.82351 16.1923 10.3871 16.6406 11.0281 16.9487C11.6692 17.2568 12.3714 17.4166 13.0827 17.4165H17.041C17.251 17.4165 17.4523 17.333 17.6008 17.1846C17.7493 17.0361 17.8327 16.8348 17.8327 16.6248V12.6665C17.8325 11.9549 17.6721 11.2526 17.3635 10.6115C17.0549 9.97038 16.6059 9.40697 16.0498 8.96304C16.1772 8.37983 16.244 7.78505 16.2494 7.18812C17.2112 7.74344 18.0101 8.54192 18.5659 9.50347C19.1217 10.465 19.4149 11.5558 19.416 12.6665ZM14.6478 7.64017C14.7218 6.62021 14.5755 5.59627 14.2186 4.63792C13.8617 3.67958 13.3028 2.80928 12.5796 2.08616C11.8565 1.36305 10.9862 0.80407 10.0279 0.447206C9.06953 0.0903421 8.04559 -0.0560429 7.02564 0.0179983C5.2182 0.224411 3.54858 1.08451 2.3312 2.43634C1.11381 3.78816 0.432662 5.53843 0.416016 7.35754L0.416016 11.3475C0.416016 13.352 1.60906 14.2498 2.79102 14.2498H7.30352C9.1234 14.2341 10.8747 13.5534 12.2275 12.336C13.5803 11.1185 14.4411 9.44835 14.6478 7.64017ZM11.4598 3.20683C12.0218 3.7701 12.4563 4.44753 12.7338 5.19327C13.0114 5.93901 13.1255 6.73567 13.0684 7.52933C12.8995 8.94141 12.2202 10.243 11.1584 11.1892C10.0966 12.1353 8.72565 12.6607 7.30352 12.6665H2.79102C2.05635 12.6665 1.99935 11.6571 1.99935 11.3475V7.35754C2.00595 5.936 2.53186 4.56589 3.47812 3.50504C4.42437 2.44418 5.72572 1.76574 7.13727 1.59737C7.26868 1.58787 7.4001 1.58312 7.53152 1.58312C8.26086 1.58244 8.98318 1.72549 9.65721 2.0041C10.3312 2.2827 10.9438 2.6914 11.4598 3.20683Z" fill="white"/>
</g>
<defs>
<clipPath id="clip0_209_3021">
<rect width="19" height="19" fill="white" transform="translate(0.416016)"/>
</clipPath>
</defs>
</svg>
