<svg width="22" height="22" viewBox="0 0 22 22" fill="none" xmlns="http://www.w3.org/2000/svg">
<path fill-rule="evenodd" clip-rule="evenodd" d="M11 1.5C8.23858 1.5 6 3.73858 6 6.5C6 9.26142 8.23858 11.5 11 11.5C13.7614 11.5 16 9.26142 16 6.5C16 3.73858 13.7614 1.5 11 1.5ZM5 6.5C5 3.18629 7.68629 0.5 11 0.5C14.3137 0.5 17 3.18629 17 6.5C17 9.81371 14.3137 12.5 11 12.5C7.68629 12.5 5 9.81371 5 6.5Z" fill="currentColor"/>
<path fill-rule="evenodd" clip-rule="evenodd" d="M10.9999 12.5C6.43404 12.5 2.66831 15.372 1.72797 19.1404C1.56057 19.8112 2.12658 20.5 2.9999 20.5H18.9999C19.8732 20.5 20.4392 19.8112 20.2718 19.1404C19.3315 15.372 15.5658 12.5 10.9999 12.5ZM0.757722 18.8983C1.82249 14.6313 6.03229 11.5 10.9999 11.5C15.9675 11.5 20.1773 14.6313 21.2421 18.8983C21.6095 20.3709 20.3357 21.5 18.9999 21.5H2.9999C1.66409 21.5 0.390261 20.3709 0.757722 18.8983Z" fill="currentColor"/>
</svg>
