<svg width="35" height="35" xmlns="http://www.w3.org/2000/svg" viewBox="0 0 33 40"><path d="M86.5 34.5H59.4L56 64h33.9l-3.4-29.5z" style="fill:#f59e51" transform="translate(-56 -24)"/><path d="M78.2 40.4c-.4 0-.7-.3-.7-.7v-9.8c0-2.5-2.1-4.6-4.6-4.6-2.5 0-4.6 2.1-4.6 4.6v9.8c0 .4-.3.6-.7.6-.3 0-.6-.3-.6-.6v-9.8c0-3.3 2.6-5.9 5.9-5.9s5.9 2.6 5.9 5.9v9.8c0 .4-.3.7-.6.7z" style="fill:#505659" transform="translate(-56 -24)"/><g transform="translate(10.427 14.987)"><circle class="st1" cx="1.4" cy="1.5" r="1.5"/><circle class="st1" cx="12.4" cy="1.5" r="1.5"/></g></svg>