<svg version="1.0" xmlns="http://www.w3.org/2000/svg" width="120" height="120" viewBox="0 0 900 900"><path d="M429 90.6c-36.9 4.2-61.3 11.1-90.5 25.4-51.5 25.3-91.4 65.3-117 117.5-12.3 25.1-20.9 54.4-24.6 84-3 23.5-1.1 55.9 4.7 84 14.5 69.6 57.4 156.8 123.3 251 29.8 42.6 53.6 73.6 77.7 101 14.3 16.3 35.7 41.9 42.9 51.2 2.2 2.9 4.3 5.1 4.6 5 .3-.1 7-7.6 14.9-16.7 7.8-9.1 22.6-25.7 32.9-36.9 42.9-47 89.8-109.9 124.3-166.9 44-72.8 70.2-139.1 79.2-200.2 8.2-56.2.5-107.8-23.4-156.5-27.8-56.5-74.2-99.9-132.4-124-29.1-12-56.8-17.5-91.1-18-12.1-.2-23.6-.1-25.5.1zm48 142.3c29.6 8.1 52.8 24.6 68.7 48.9 25.5 38.7 25.3 89-.3 127.5-34 51-100.5 66.6-153.1 35.9-15-8.8-30-23.3-39.1-37.7-38.6-61.7-11.7-144 55.6-170 15.6-6 25.3-7.5 44.2-7.1 12.6.3 18.3.9 24 2.5z" fill="#545977"/></svg>