<svg width="40.5" height="40" xmlns="http://www.w3.org/2000/svg" viewBox="0 0 38 40"><style>.st2-ico-user{fill:#394194}.st3-ico-user{fill:#4e4d9c}</style><path id="Trazado_1086" d="M19 0 7.1 19 19 38c10.5 0 19-8.5 19-19S29.5 0 19 0z" style="fill:#4ba4dc"/><path id="Trazado_1087" d="M0 19c0 10.5 8.5 19 19 19V0C8.5 0 0 8.5 0 19z" style="fill:#45c1ef"/><path id="Trazado_1088" class="st2-ico-user" d="m19 4.5-4.9 7.8L19 20c4.3 0 7.8-3.5 7.8-7.8S23.3 4.5 19 4.5z"/><path id="Trazado_1089" class="st3-ico-user" d="M11.2 12.2c0 4.3 3.5 7.8 7.8 7.8V4.5c-4.3 0-7.8 3.4-7.8 7.7z"/><path id="Trazado_1090" class="st2-ico-user" d="M31.5 24.9c-1.5-1.7-3.6-2.6-5.8-2.6H19l-4.5 5.6 4.5 5.6c5.2 0 10.1-2.8 12.7-7.4l.4-.7-.6-.5z"/><path id="Trazado_1091" class="st3-ico-user" d="M12.3 22.3c-2.2 0-4.4 1-5.8 2.6l-.5.6.4.7c2.6 4.5 7.4 7.4 12.7 7.4V22.3h-6.8z"/></svg>